<svg id="visual" viewBox="0 0 900 600" width="900" height="600" xmlns="http://www.w3.org/2000/svg" xmlns:xlink="http://www.w3.org/1999/xlink" version="1.1"><rect x="0" y="0" width="900" height="600" fill="#002233"></rect><path d="M0 433L21.5 426.8C43 420.7 86 408.3 128.8 406.8C171.7 405.3 214.3 414.7 257.2 411.8C300 409 343 394 385.8 401.5C428.7 409 471.3 439 514.2 449.2C557 459.3 600 449.7 642.8 452C685.7 454.3 728.3 468.7 771.2 461.5C814 454.3 857 425.7 878.5 411.3L900 397L900 601L878.5 601C857 601 814 601 771.2 601C728.3 601 685.7 601 642.8 601C600 601 557 601 514.2 601C471.3 601 428.7 601 385.8 601C343 601 300 601 257.2 601C214.3 601 171.7 601 128.8 601C86 601 43 601 21.5 601L0 601Z" fill="#0066FF" stroke-linecap="round" stroke-linejoin="miter"></path></svg>